<?xml version="1.0" encoding="UTF-8" standalone="no"?>
<!DOCTYPE svg PUBLIC "-//W3C//DTD SVG 20010904//EN"
              "http://www.w3.org/TR/2001/REC-SVG-20010904/DTD/svg10.dtd">

<svg xmlns="http://www.w3.org/2000/svg"
     width="9.57429in" height="9.57429in"
     viewBox="0 0 3351 3351">
  <path id="Selection"
        fill="none" stroke="black" stroke-width="1"
        d="M 0.00,0.00
           C 0.00,0.00 3351.00,0.00 3351.00,0.00
             3351.00,0.00 3351.00,3351.00 3351.00,3351.00
             3351.00,3351.00 0.00,3351.00 0.00,3351.00
             0.00,3351.00 0.00,0.00 0.00,0.00 Z
           M 2257.00,114.00
           C 2257.00,114.00 2226.00,103.05 2226.00,103.05
             2226.00,103.05 2174.00,85.34 2174.00,85.34
             2122.38,68.85 2069.92,55.05 2017.00,43.42
             1923.12,22.80 1799.81,7.15 1704.00,7.00
             1704.00,7.00 1687.00,6.00 1687.00,6.00
             1687.00,6.00 1647.00,6.00 1647.00,6.00
             1647.00,6.00 1631.00,7.00 1631.00,7.00
             1631.00,7.00 1612.00,7.00 1612.00,7.00
             1612.00,7.00 1589.00,8.00 1589.00,8.00
             1589.00,8.00 1573.00,9.00 1573.00,9.00
             1573.00,9.00 1560.00,9.91 1560.00,9.91
             1560.00,9.91 1510.00,13.83 1510.00,13.83
             1467.88,17.91 1425.70,22.91 1384.00,30.42
             1292.34,46.95 1201.80,69.45 1114.00,100.69
             1114.00,100.69 1020.00,137.01 1020.00,137.01
             1020.00,137.01 978.00,155.00 978.00,155.00
             978.00,155.00 984.58,172.00 984.58,172.00
             984.58,172.00 997.22,200.00 997.22,200.00
             997.22,200.00 1030.69,274.00 1030.69,274.00
             1030.69,274.00 1138.69,513.00 1138.69,513.00
             1138.69,513.00 1272.31,809.00 1272.31,809.00
             1272.31,809.00 1366.31,1017.00 1366.31,1017.00
             1366.31,1017.00 1490.70,1292.00 1490.70,1292.00
             1490.70,1292.00 1568.31,1464.00 1568.31,1464.00
             1568.31,1464.00 1610.00,1556.00 1610.00,1556.00
             1610.00,1556.00 1637.58,1617.00 1637.58,1617.00
             1637.58,1617.00 1646.14,1636.00 1646.14,1636.00
             1646.14,1636.00 1651.63,1646.30 1651.63,1646.30
             1651.63,1646.30 1664.00,1652.00 1664.00,1652.00
             1664.00,1652.00 1716.42,1516.00 1716.42,1516.00
             1716.42,1516.00 1782.42,1345.00 1782.42,1345.00
             1782.42,1345.00 1875.58,1104.00 1875.58,1104.00
             1875.58,1104.00 1946.58,920.00 1946.58,920.00
             1946.58,920.00 2051.81,647.00 2051.81,647.00
             2051.81,647.00 2188.81,292.00 2188.81,292.00
             2188.81,292.00 2232.81,178.00 2232.81,178.00
             2232.81,178.00 2249.42,135.00 2249.42,135.00
             2249.42,135.00 2257.00,114.00 2257.00,114.00 Z" />
</svg>
