<?xml version="1.0" encoding="UTF-8" standalone="no"?>
<!DOCTYPE svg PUBLIC "-//W3C//DTD SVG 20010904//EN"
              "http://www.w3.org/TR/2001/REC-SVG-20010904/DTD/svg10.dtd">

<svg xmlns="http://www.w3.org/2000/svg"
     width="9.57429in" height="9.57429in"
     viewBox="0 0 3351 3351">
  <path id="Selection"
        fill="none" stroke="black" stroke-width="1"
        d="M 0.00,0.00
           C 0.00,0.00 3351.00,0.00 3351.00,0.00
             3351.00,0.00 3351.00,3351.00 3351.00,3351.00
             3351.00,3351.00 0.00,3351.00 0.00,3351.00
             0.00,3351.00 0.00,0.00 0.00,0.00 Z
           M 1659.00,1665.00
           C 1659.00,1665.00 1651.05,1682.00 1651.05,1682.00
             1651.05,1682.00 1640.32,1710.00 1640.32,1710.00
             1640.32,1710.00 1605.58,1800.00 1605.58,1800.00
             1605.58,1800.00 1539.42,1971.00 1539.42,1971.00
             1539.42,1971.00 1487.80,2105.00 1487.80,2105.00
             1487.80,2105.00 1432.19,2249.00 1432.19,2249.00
             1432.19,2249.00 1354.58,2450.00 1354.58,2450.00
             1354.58,2450.00 1191.58,2872.00 1191.58,2872.00
             1191.58,2872.00 1096.58,3118.00 1096.58,3118.00
             1096.58,3118.00 1067.19,3194.00 1067.19,3194.00
             1067.19,3194.00 1053.00,3233.00 1053.00,3233.00
             1053.00,3233.00 1087.00,3245.58 1087.00,3245.58
             1087.00,3245.58 1151.00,3267.98 1151.00,3267.98
             1226.89,3291.56 1300.59,3311.13 1379.00,3324.75
             1433.97,3334.30 1489.40,3341.27 1545.00,3345.09
             1545.00,3345.09 1595.00,3348.00 1595.00,3348.00
             1595.00,3348.00 1612.00,3349.00 1612.00,3349.00
             1612.00,3349.00 1632.00,3349.00 1632.00,3349.00
             1632.00,3349.00 1648.00,3350.00 1648.00,3350.00
             1648.00,3350.00 1687.00,3350.00 1687.00,3350.00
             1687.00,3350.00 1704.00,3349.00 1704.00,3349.00
             1704.00,3349.00 1724.00,3349.00 1724.00,3349.00
             1724.00,3349.00 1738.00,3348.00 1738.00,3348.00
             1738.00,3348.00 1775.00,3346.09 1775.00,3346.09
             1775.00,3346.09 1836.00,3341.17 1836.00,3341.17
             1931.53,3331.62 2025.52,3313.14 2118.00,3287.42
             2191.30,3267.04 2283.38,3234.37 2352.00,3202.00
             2352.00,3202.00 2341.30,3177.00 2341.30,3177.00
             2341.30,3177.00 2322.31,3135.00 2322.31,3135.00
             2322.31,3135.00 2271.31,3022.00 2271.31,3022.00
             2271.31,3022.00 2114.31,2674.00 2114.31,2674.00
             2114.31,2674.00 2033.69,2495.00 2033.69,2495.00
             2033.69,2495.00 1781.31,1936.00 1781.31,1936.00
             1781.31,1936.00 1698.31,1752.00 1698.31,1752.00
             1698.31,1752.00 1659.00,1665.00 1659.00,1665.00 Z" />
</svg>
