<?xml version="1.0" encoding="UTF-8" standalone="no"?>
<!DOCTYPE svg PUBLIC "-//W3C//DTD SVG 20010904//EN"
              "http://www.w3.org/TR/2001/REC-SVG-20010904/DTD/svg10.dtd">

<svg xmlns="http://www.w3.org/2000/svg"
     width="9.57429in" height="9.57429in"
     viewBox="0 0 3351 3351">
  <path id="Selection"
        fill="none" stroke="black" stroke-width="1"
        d="M 0.00,0.00
           C 0.00,0.00 3351.00,0.00 3351.00,0.00
             3351.00,0.00 3351.00,3351.00 3351.00,3351.00
             3351.00,3351.00 0.00,3351.00 0.00,3351.00
             0.00,3351.00 0.00,0.00 0.00,0.00 Z
           M 2258.00,115.00
           C 2258.00,115.00 2243.40,151.00 2243.40,151.00
             2243.40,151.00 2212.19,232.00 2212.19,232.00
             2212.19,232.00 2114.58,485.00 2114.58,485.00
             2114.58,485.00 1933.42,954.00 1933.42,954.00
             1933.42,954.00 1862.42,1138.00 1862.42,1138.00
             1862.42,1138.00 1805.00,1287.00 1805.00,1287.00
             1805.00,1287.00 1699.60,1560.00 1699.60,1560.00
             1699.60,1560.00 1674.95,1624.00 1674.95,1624.00
             1674.95,1624.00 1669.24,1639.00 1669.24,1639.00
             1668.46,1641.43 1667.65,1643.82 1670.30,1645.42
             1675.06,1648.29 1688.94,1640.32 1694.00,1638.15
             1694.00,1638.15 1762.00,1608.28 1762.00,1608.28
             1762.00,1608.28 1920.00,1538.86 1920.00,1538.86
             1920.00,1538.86 2042.00,1485.30 2042.00,1485.30
             2042.00,1485.30 2111.00,1455.14 2111.00,1455.14
             2111.00,1455.14 2259.00,1390.14 2259.00,1390.14
             2259.00,1390.14 2735.00,1181.14 2735.00,1181.14
             2735.00,1181.14 3031.00,1051.14 3031.00,1051.14
             3031.00,1051.14 3129.00,1008.14 3129.00,1008.14
             3129.00,1008.14 3182.00,985.00 3182.00,985.00
             3180.33,977.90 3171.81,961.34 3168.26,954.00
             3168.26,954.00 3142.26,902.00 3142.26,902.00
             3106.93,833.53 3066.23,767.68 3021.42,705.00
             2885.75,515.24 2709.01,351.66 2507.00,234.42
             2455.90,204.77 2403.70,177.90 2350.00,153.31
             2350.00,153.31 2295.00,129.80 2295.00,129.80
             2295.00,129.80 2258.00,115.00 2258.00,115.00 Z" />
</svg>
